<?xml version="1.0" standalone="no"?>
<!DOCTYPE svg PUBLIC "-//W3C//DTD SVG 20010904//EN"
 "http://www.w3.org/TR/2001/REC-SVG-20010904/DTD/svg10.dtd">
<svg version="1.0" xmlns="http://www.w3.org/2000/svg"
 width="1668.000000pt" height="2387.000000pt" viewBox="0 0 1668.000000 2387.000000"
 preserveAspectRatio="xMidYMid meet">
<metadata>
Created by potrace 1.15, written by Peter Selinger 2001-2017
</metadata>
<g transform="translate(0.000000,2387.000000) scale(0.100000,-0.100000)"
fill="#000000" stroke="none">
<path d="M234 23856 c-94 -29 -187 -121 -219 -216 -13 -41 -15 -1274 -13
-11720 l3 -11675 25 -50 c31 -64 101 -134 165 -165 l50 -25 8095 0 8095 0 50
25 c64 31 134 101 165 165 l25 50 0 11690 0 11690 -25 50 c-31 64 -101 134
-165 165 l-50 25 -8080 2 c-6560 1 -8088 -1 -8121 -11z"/>
</g>
</svg>
